<svg width="676" height="488" viewBox="0 0 676 488" fill="none" xmlns="http://www.w3.org/2000/svg">
<path d="M112.52 336.84V483.84C112.52 485.91 110.84 487.59 108.77 487.59H3.75C1.68 487.59 0 485.91 0 483.84V273.27C0 269.76 4.37 268.19 6.63 270.87C32.71 301.8 68.62 324.17 109.55 333.16C111.28 333.54 112.52 335.05 112.52 336.83V336.84Z" fill="#050505"/>
<path d="M675.13 337.64C675.09 420.7 606.73 487.59 523.67 487.59H153.78C151.71 487.59 150.03 485.91 150.03 483.84V378.82C150.03 376.75 151.71 375.07 153.78 375.07H524.36C545.39 375.07 563 357.86 562.6 336.83C562.21 316.45 545.57 300.05 525.1 300.05H151.46C68.4 300.06 0.0400179 233.17 1.78532e-05 150.1C-0.0399821 67.21 67.14 0 150.03 0H483.83C485.9 0 487.58 1.68 487.58 3.75V108.76C487.59 110.83 485.91 112.51 483.84 112.51H150.03C129.56 112.52 112.92 128.92 112.53 149.3C112.13 170.33 129.74 187.54 150.77 187.54H525.1C607.98 187.54 675.17 254.75 675.13 337.64Z" fill="#050505"/>
<path d="M675.13 150.03C675.13 169.33 671.49 187.78 664.85 204.73C663.86 207.25 660.6 207.88 658.7 205.95C633.73 180.61 601.6 162.33 565.58 154.42C563.83 154.03 562.58 152.49 562.61 150.69C562.61 150.47 562.61 150.25 562.61 150.03C562.61 130.45 547.61 114.38 528.48 112.67C526.56 112.5 525.11 110.87 525.11 108.94V3.8C525.11 1.67 526.85 -0.00999876 528.98 0.0500012C610.05 2.1 675.14 68.46 675.14 150.03H675.13Z" fill="#050505"/>
</svg>
